<svg width="1593" height="1454" viewBox="0 0 1593 1454" fill="none" xmlns="http://www.w3.org/2000/svg">
<path d="M142 881L195 542.5L0 405.5L221.5 153L573 239.5L706 352.5L615 480.5L684 1078L502.5 1135.5L451.5 587L442.5 1454L274.5 1443L299 578L250 916.5L142 881Z" fill="black"/>
<path d="M474.094 0C443.372 27.0968 379.343 81.2903 369 81.2903L451.991 168L555 110.888L474.094 0Z" fill="black"/>
<path fill-rule="evenodd" clip-rule="evenodd" d="M615 273.5L719 1038.5L1068.5 1139.5L1325 943.5L1446.5 663L1238.5 308L892 57L615 273.5ZM823 452.5L906.5 836.5L1048 862.5L1160.5 712.5V536L1007.5 357L823 452.5Z" fill="black"/>
<path d="M1170.55 1206.74L1137.68 1163.02L1130.07 1156.23L1128.14 1150.17L1143.41 1138.69L1181.91 1157.28L1183.51 1156.08L1173.62 1115.97L1189.52 1104.01L1193.93 1108.21L1198.9 1116.48L1232.01 1160.52L1217.55 1171.4L1212.68 1164.42L1195.91 1142.12L1195.03 1142.78L1197.61 1152.86L1200.51 1171.7L1190.92 1178.91L1164.02 1166.1L1163.22 1166.7L1168.09 1173.18L1185.9 1195.2L1170.55 1206.74ZM1243.2 1152.11L1210.27 1108.31L1203.46 1100.92L1200.65 1095.52L1215.12 1084.64L1257.67 1141.23L1243.2 1152.11ZM1293.32 1115.67C1289.91 1118.24 1286.28 1120.34 1282.43 1121.99C1278.59 1123.54 1274.56 1124.23 1270.35 1124.06C1266.19 1123.85 1261.91 1122.44 1257.52 1119.82C1253.19 1117.16 1248.8 1112.87 1244.35 1106.95C1239.9 1101.04 1237 1095.63 1235.65 1090.73C1234.35 1085.78 1234.18 1081.28 1235.13 1077.23C1236.14 1073.13 1237.94 1069.48 1240.54 1066.28C1243.15 1062.98 1246.16 1060.05 1249.57 1057.49C1252.98 1054.92 1256.6 1052.87 1260.44 1051.31C1264.33 1049.72 1268.36 1049.03 1272.52 1049.24C1276.73 1049.41 1281.01 1050.82 1285.34 1053.48C1289.73 1056.1 1294.13 1060.35 1298.54 1066.21C1302.94 1072.07 1305.8 1077.47 1307.1 1082.42C1308.45 1087.32 1308.62 1091.82 1307.61 1095.92C1306.66 1099.97 1304.88 1103.65 1302.27 1106.94C1299.71 1110.2 1296.73 1113.11 1293.32 1115.67ZM1283.1 1102.09C1287.04 1099.12 1289.15 1095.71 1289.41 1091.84C1289.67 1087.97 1287.68 1083.21 1283.43 1077.57C1279.18 1071.92 1275.17 1068.68 1271.38 1067.86C1267.59 1067.04 1263.73 1068.11 1259.78 1071.08C1255.89 1074 1253.84 1077.42 1253.62 1081.34C1253.39 1085.26 1255.37 1089.99 1259.53 1095.54C1263.7 1101.08 1267.7 1104.29 1271.53 1105.16C1275.35 1106.04 1279.21 1105.01 1283.1 1102.09ZM1329.39 1087.3L1296.51 1043.58L1288.91 1036.79L1286.84 1030.71L1310.66 1012.8C1314.49 1009.92 1318.45 1007.53 1322.53 1005.63C1326.62 1003.64 1330.79 1002.59 1335.04 1002.47C1339.35 1002.32 1343.69 1003.48 1348.05 1005.96C1352.46 1008.39 1356.88 1012.54 1361.28 1018.4C1365.69 1024.26 1368.49 1029.71 1369.68 1034.73C1370.84 1039.7 1370.78 1044.29 1369.52 1048.49C1368.26 1052.69 1366.14 1056.54 1363.17 1060.02C1360.26 1063.46 1356.94 1066.59 1353.21 1069.39L1329.39 1087.3ZM1334.32 1063.57L1343.59 1056.6C1348.28 1053.08 1350.95 1049.15 1351.62 1044.81C1352.24 1040.43 1350.42 1035.41 1346.18 1029.76C1341.93 1024.11 1337.71 1021.16 1333.51 1020.9C1329.32 1020.54 1324.91 1022.11 1320.27 1025.59L1311 1032.56L1334.32 1063.57Z" fill="black"/>
<path d="M1439.43 979.429C1437.42 984.155 1435.07 988.441 1432.35 992.286C1429.6 996.044 1426.31 999.029 1422.47 1001.24C1418.66 1003.39 1414.19 1004.47 1409.05 1004.46C1403.91 1004.45 1397.94 1003.01 1391.12 1000.12C1384.56 997.336 1379.54 994.052 1376.08 990.267C1372.55 986.455 1370.22 982.39 1369.08 978.07C1367.97 973.689 1367.74 969.282 1368.38 964.85C1369.06 960.357 1370.27 956.054 1372.01 951.941C1373.28 948.933 1374.54 946.39 1375.79 944.31C1377.03 942.23 1378.33 940.282 1379.68 938.464L1392.26 929.025L1403.8 941.519L1387.99 958.823C1386.74 961.769 1386.17 964.748 1386.27 967.759C1386.39 970.708 1387.42 973.497 1389.35 976.124C1391.24 978.664 1394.33 980.844 1398.63 982.665C1405.57 985.605 1411.1 986.139 1415.22 984.266C1419.31 982.307 1422.5 978.626 1424.79 973.224C1425.96 970.462 1426.75 968.262 1427.15 966.623C1427.52 964.897 1427.8 963.566 1427.98 962.628L1420.98 959.662L1416.02 971.356L1402.4 965.58L1414.81 936.301L1420.76 937.63L1427.54 942.894L1446.88 951.089C1446.84 951.868 1446.62 953.585 1446.22 956.239C1445.84 958.832 1445.12 962.148 1444.06 966.188C1443.03 970.166 1441.48 974.58 1439.43 979.429ZM1452.65 945.664L1438.97 934.65L1427.27 929.694L1427.4 921.71L1397.39 894.873L1407.5 871.026L1455.03 873.685L1471.11 872.137L1481.88 876.702L1474.97 892.999L1458.29 891.359L1446.93 918.152L1459.99 928.355L1452.65 945.664ZM1435.33 906.066L1441.97 890.413L1417.92 888.475L1417.1 890.408L1435.33 906.066ZM1485.37 868.457L1435.01 847.111L1425.02 845.051L1420.32 840.776L1427.77 823.19L1470.41 819.973L1471.19 818.131L1442.52 788.387L1450.29 770.065L1456.2 771.485L1464.65 776.152L1515.38 797.654L1508.32 814.319L1500.61 810.726L1474.92 799.838L1474.49 800.851L1481.77 808.28L1493.73 823.122L1489.05 834.171L1459.35 836.575L1458.96 837.496L1466.42 840.656L1492.87 850.779L1485.37 868.457ZM1521.23 783.848L1514.93 783.348L1506.5 777.604L1456.05 756.22L1475.36 710.644L1480.08 707.211L1490.39 718.751L1485.96 726.648L1477.8 745.891L1487.93 750.183L1498.43 725.416L1512.7 731.464L1508.1 742.329L1501.28 755.841L1513.53 761.031L1525.2 733.502L1538.68 726.292L1542.27 734.221L1521.23 783.848ZM1558 699.672C1556.57 703.048 1554.91 706.11 1553.02 708.858C1551.07 711.579 1549.16 713.85 1547.31 715.669C1545.45 717.489 1543.9 718.751 1542.66 719.456L1526.18 712.471C1529.09 710.227 1532.23 707.177 1535.6 703.321C1538.91 699.438 1541.72 694.766 1544.04 689.303C1544.97 687.093 1545.39 685.349 1545.28 684.072C1545.13 682.707 1544.32 681.712 1542.85 681.088C1541.25 680.411 1539.41 681.079 1537.33 683.092C1535.21 685.018 1532.25 688.251 1528.44 692.792C1525.43 696.297 1522.55 699.167 1519.79 701.401C1517 703.549 1514.11 704.895 1511.13 705.441C1508.11 705.9 1504.76 705.348 1501.08 703.787C1497.27 702.175 1494.25 699.736 1492.02 696.471C1489.78 693.206 1488.66 689.109 1488.64 684.181C1488.63 679.252 1490.01 673.535 1492.76 667.028C1493.6 665.064 1494.57 663.016 1495.69 660.885C1496.78 658.666 1497.73 656.933 1498.55 655.687L1510.6 648.521L1520.31 656.873L1505.08 676.157C1504.01 678.674 1503.74 680.767 1504.26 682.437C1504.81 684.046 1505.82 685.162 1507.3 685.787C1509.08 686.541 1510.92 686.127 1512.82 684.543C1514.72 682.96 1517 680.487 1519.66 677.123C1523.86 671.81 1527.68 667.926 1531.11 665.47C1534.54 663.014 1537.83 661.657 1540.98 661.399C1544.07 661.115 1547.21 661.65 1550.4 663.002C1556.3 665.5 1560.05 669.879 1561.67 676.141C1563.23 682.376 1562 690.22 1558 699.672Z" fill="black"/>
</svg>
